<svg width="28" height="28" xmlns="http://www.w3.org/2000/svg">
    <title>logo jolie</title>
<!--    <path name="ocaml" 
        d="
            M 62.95 49.4 L 62.95 56.6 L 66.55 56.6 L 66.55 42.2 L 73.75 42.2 L 73.75 45.8 L 70.15 45.8 L 70.15 49.4 L 73.75 49.4 L 73.75 42.2 C 77.35 42.2 80.95 45.8 80.95 49.4 L 80.95 53 L 73.75 53 L 73.75 60.2 C 73.75 62 71.95 63.8 70.15 63.8 L 66.55 63.8 L 66.55 74.6 L 62.95 74.6 L 62.95 63.8 L 59.35 63.8 L 59.35 74.6 L 55.75 74.6 L 55.75 63.8 L 48.55 63.8 L 48.55 74.6 L 44.95 74.6 L 44.95 63.8 L 41.35 63.8 V 74.6 L 37.75 74.6 L 37.75 63.8 C 35.95 63.8 34.15 62 34.15 56.6 L 34.15 49.4 L 37.75 49.4 C 37.75 49.04 39.91 38.6 44.23 38.6 C 48.55 38.6 50.35 49.04 50.35 49.4 C 50.35 49.04 52.51 38.6 56.83 38.6 C 61.15 38.6 62.95 49.04 62.95 49.4
        " fill="#ffb270"/>-->


        <path name="ada" 
        d="
           M 11 3 C 9 2 4 2 0 4 C 4 2 9 2 11 2 C 11 1 12 0 13 0 L 15 0 C 16 0 17 1 17 2 L 17 8 L 18 8 C 19 8 20 7 20 6 L 28 4 C 26 5.6667 29 8 22 10 L 27 11 C 23 12 24 16 18 15 L 19 17 L 17 16 C 16 19 17 21 21 23 C 19 24 17 24 16 23 C 15 27 13 27 12 23 C 11 24 9 24 7 23 C 11 21 12 19 11 16 L 9 17 L 10 15 C 5 16 4 11 1 11 L 6 10 C -1 8 2 6 0 4 L 8 6 C 8 7 9 8 10 8 L 11 8 L 11 3 M 14 10 C 14 8 10 8 10 11 C 10 12 11 14 14 16 C 17 14 18 12 18 11 C 18 8 14 8 14 10 M 16 3 A 1 1 0 0 0 13 3 A 1 1 0 0 0 16 3 M 14 10
        " fill="#000000"/>

        <path name="coeur_ada" d="M 14 10 M 14 10 C 11 8 10 13 14 15 C 18 13 17 8 14 10" fill="#0000FF"/>

<!--    <path name="docker" 
        d="
            M 35 55 L 45 55 L 45 45 L 35 45 L 35 55 M 50 55 L 60 55 L 60 45 L 50 45 M 50 45 L 50 55 M 50 40 L 60 40 L 60 30 L 50 30 L 50 40 M 65 40 L 75 40 L 75 30 L 65 30 L 65 40 M 65 45 L 75 45 L 75 55 L 65 55 M 65 55 L 65 45 M 55 85 L 40 85 C 35 85 30 80 30 75 L 30 73 L 35 73 C 35 77 38 80 42 80 L 43 80 C 47 80 50 77 50 73 L 50 72 C 50 68 47 65 43 65 L 42 65 C 38 65 35 68 35 72 L 35 73 L 30 73 L 30 60 L 85 60 C 81 56 81 49 85 45 C 89 49 89 56 85 60 C 89 56 96 56 100 60 C 96 64 89 64 85 60 C 85 70 75 85 55 85 M 40 75 L 40 70 L 45 70 L 45 75 L 40 75
        " fill="#7cd5f1"/>

        <path name="capybara" 
        d="
            M 33.7 56.2 L 40.9 56.2 L 42.7 58 L 42.7 65.2 C 42.7 69.7 44.5 74.2 47.2 74.2 L 47.2 78.7 L 51.7 78.7 L 51.7 74.2 L 67.9 74.2 C 66.1 74.2 63.4 71.5 63.4 67.9 C 64.3 72.4 67.9 74.2 69.7 74.2 L 69.7 78.7 L 74.2 78.7 L 74.2 74.2 C 76 74.2 78.7 71.5 78.7 69.7 L 78.7 60.7 C 78.7 57.1 72.4 51.7 65.2 51.7 L 60.7 51.7 C 61.6 47.2 61.6 38.2 59.8 37.3 C 61.6 36.4 62.5 33.7 62.5 32.8 C 61.6 32.8 58.9 33.7 58 35.5 L 56.2 33.7 L 33.7 33.7 L 29.2 38.2 L 29.2 51.7 L 33.7 56.2 M 45.4 49.9 C 42.7 47.2 42.7 41.8 45.4 39.1 C 48.1 36.4 53.5 36.4 56.2 39.1 C 58.9 41.8 58.9 47.2 56.2 49.9 C 53.5 52.6 48.1 52.6 45.4 49.9 M 47.2 48.1 C 49 49.9 52.6 49.9 54.4 48.1 C 56.2 46.3 56.2 42.7 55.3 41.8 L 53.5 43.6 C 51.7 43.6 51.7 43.6 51.7 41.8 L 53.5 40 C 52.6 39.1 49 39.1 47.2 40.9 C 45.4 42.7 45.4 46.3 47.2 48.1

            M 34 56 L 29 60 L 29 66 L 34 62 L 34 56 C 33 60 30 63 29 66 C 30 63 32 60 34 56
        " fill="#ffb270"/>-->
</svg>
